<?xml version="1.0" encoding="utf-8"?>
<!-- Generator: Adobe Illustrator 25.3.1, SVG Export Plug-In . SVG Version: 6.00 Build 0)  -->
<svg version="1.1" id="Layer_1" xmlns="http://www.w3.org/2000/svg" xmlns:xlink="http://www.w3.org/1999/xlink" x="0px" y="0px"
	 viewBox="0 0 583 431" style="enable-background:new 0 0 583 431;" xml:space="preserve">
<style type="text/css">
	.st0{fill:#61DAFB;}
	.st1{fill:#F2F2F2;}
	.st2{fill:#FFB6B6;}
	.st3{fill:#2F2E41;}
	.st4{fill:#253DA1;}
	.st5{fill:#E6E6E6;}
</style>
<g>
	<path class="st0" d="M291.5,309c-64.4,0-125-9.6-170.7-27c-46.2-17.6-71.7-41.4-71.7-66.8s25.5-49.1,71.7-66.8
		c45.6-17.4,106.2-27,170.7-27s125,9.6,170.7,27c46.2,17.6,71.7,41.4,71.7,66.8s-25.5,49.1-71.7,66.8C416.6,299.4,356,309,291.5,309
		z M291.5,125.4c-64,0-124.1,9.5-169.2,26.7c-44.6,17-69.1,39.4-69.1,63s24.5,46,69.1,63c45.2,17.2,105.3,26.7,169.2,26.7
		s124.1-9.5,169.2-26.7c44.6-17,69.1-39.4,69.1-63s-24.5-46-69.1-63C415.6,134.9,355.5,125.4,291.5,125.4z"/>
	<path class="st0" d="M391.6,430.4c-20,0-45-11.6-72.6-34c-37.9-30.8-76.5-78.5-108.7-134.3c-32.2-55.8-54.2-113.1-61.9-161.3
		c-7.8-48.9,0-82.8,22-95.5c22-12.7,55.3-2.5,93.6,28.7c37.9,30.8,76.5,78.5,108.7,134.3c32.2,55.8,54.2,113.1,61.9,161.3
		c7.8,48.9,0,82.8-22,95.5C406.5,428.6,399.5,430.4,391.6,430.4z M191.5,4c-7.1,0-13.6,1.6-19.1,4.8c-20.5,11.8-27.6,44.3-20,91.4
		c7.6,47.7,29.5,104.5,61.5,159.9c32,55.4,70.3,102.7,107.8,133.2c37,30.1,68.7,40.2,89.1,28.3c20.5-11.8,27.6-44.3,20-91.4
		c-7.6-47.7-29.5-104.5-61.5-159.9c-32-55.4-70.3-102.7-107.8-133.2C234.6,15.3,210.5,4,191.5,4z"/>
	<path class="st0" d="M191.4,430.4c-7.8,0-14.9-1.8-21-5.3c-22-12.7-29.8-46.6-22-95.5c7.7-48.2,29.7-105.5,61.9-161.3
		C242.5,112.5,281.1,64.8,319,34c38.4-31.2,71.7-41.4,93.6-28.7c22,12.7,29.8,46.6,22,95.5c-7.7,48.2-29.7,105.5-61.9,161.3
		c-32.2,55.8-70.8,103.5-108.7,134.3C236.4,418.8,211.4,430.4,191.4,430.4z M391.5,4c-19,0-43.1,11.3-70,33.2
		c-37.5,30.5-75.8,77.8-107.8,133.2c-32,55.4-53.8,112.2-61.5,159.9c-7.5,47.1-0.4,79.5,20,91.4c5.6,3.2,12,4.8,19.1,4.8
		c19,0,43.1-11.3,70-33.2c37.5-30.5,75.8-77.8,107.8-133.2c32-55.4,53.8-112.2,61.5-159.9c7.5-47.1,0.4-79.5-20-91.4
		C405.1,5.6,398.7,4,391.5,4L391.5,4z"/>
	<circle class="st0" cx="291.5" cy="215.2" r="44.8"/>
</g>
<g>
	<path class="st1" d="M564.8,338.8c-0.8-1.4-4.5,0.1-5.2-1.2c-0.7-1.3,2.7-3.2,4.7-7.7c0.3-0.8,2.6-5.9,0.9-7.5
		c-3.1-3-17.2,9.3-22.2,5.3c-1.1-0.9-1.8-2.6-5.1-5.5c-1.3-1.1-2.1-1.7-2.9-1.5c-1.1,0.3-1.2,1.7-2.3,4.6c-1.7,4.3-2.8,4-3.8,7.4
		c-0.8,2.5-0.6,4-1.5,4.3c-1.3,0.4-2.4-2.3-4-2c-1.6,0.2-2.6,3.4-2.9,5.7c-0.6,4.4,1,7.3,1.9,10.4c1,3.3,1.6,8.4-0.7,15.5
		l-22.3,62.8c4.9-12.9,19.2-48.2,25.1-61.3c1.7-3.8,3.6-7.6,7.6-9.1c3.8-1.5,8.9-0.6,15.6-2.2c0.8-0.2,2.9-0.7,3.2-2
		c0.2-1-1-1.6-0.8-2.6c0.3-1.3,2.7-1.3,5.8-2.8c2.1-1.1,3.5-2.3,4.6-3.4C560.8,345.6,565.9,340.7,564.8,338.8L564.8,338.8z"/>
	<path class="st1" d="M477.1,371.8c-0.9,0-1.2,2.2-2.1,2.2c-0.8,0-0.8-2.3-2.4-4.5c-0.3-0.4-2.2-3-3.4-2.6
		c-2.4,0.7-0.4,11.1-3.8,12.4c-0.7,0.3-1.8,0.1-4.2,0.9c-0.9,0.3-1.4,0.6-1.5,1c-0.2,0.6,0.5,1.1,1.6,2.5c1.6,2.1,1.2,2.5,2.6,4
		c1,1.1,1.8,1.4,1.7,2c-0.2,0.7-1.8,0.5-2.2,1.4c-0.3,0.9,0.9,2.3,2,3.1c2,1.6,3.9,1.6,5.6,2c1.9,0.5,4.6,1.7,7.4,4.8l24.4,29
		c-4.9-6.1-18.1-23.3-22.8-30c-1.4-1.9-2.7-4-2.3-6.3c0.4-2.3,2.3-4.6,3.4-8.3c0.1-0.4,0.5-1.6-0.1-2.1c-0.4-0.4-1.1,0-1.5-0.3
		c-0.6-0.5,0.1-1.7,0.3-3.7c0.1-1.4-0.1-2.4-0.3-3.3C479.3,375.8,478.4,371.8,477.1,371.8L477.1,371.8z"/>
	<path class="st1" d="M495.9,376l-0.6-5.1l0.3-0.4c1.2-1.8,1.8-3.5,1.8-5.2c0-0.3,0-0.5,0-0.8c0-1.1-0.1-2.4,0.6-3.9
		c0.4-0.9,1.5-2.8,3.1-2.6c0.4,0.1,0.8,0.3,1,0.5c0-0.1,0.1-0.1,0.1-0.2c0.5-0.8,0.9-1.1,1.3-1.4c0.3-0.2,0.6-0.5,1.1-1.1
		c0.2-0.3,0.4-0.5,0.5-0.7c0.4-0.6,1-1.3,1.9-1.3c1,0,1.6,0.9,1.9,1.5c0.6,1,0.9,1.7,1.1,2.2c0.1,0.2,0.1,0.4,0.2,0.4
		c0.3,0.5,3,0,4.1-0.1c2.3-0.4,4.3-0.7,5.1,0.7c0.6,1,0.2,2.4-1.3,4.2c-0.5,0.6-1,1-1.4,1.3c0.4,0.2,0.7,0.5,0.8,1.1l0,0
		c0.3,1.2-0.7,2.5-3.1,3.7c-0.6,0.3-1.4,0.7-2.5,0.9c-0.5,0.1-1,0.1-1.4,0.1c0,0.2-0.1,0.5-0.2,0.8c-0.4,0.8-1.3,1.1-2.6,1
		c-1.4-0.1-2.6-0.4-3.7-0.6c-0.9-0.2-1.7-0.4-2.3-0.3c-1.2,0.1-2,1-3.1,2.2L495.9,376L495.9,376z"/>
	<path class="st1" d="M498.6,345.9l-4.8,1.8l-0.4-0.2c-2-0.7-3.9-0.9-5.5-0.5c-0.3,0.1-0.5,0.1-0.8,0.2c-1,0.3-2.3,0.7-3.9,0.4
		c-0.9-0.2-3.1-0.7-3.3-2.3c-0.1-0.4,0.1-0.8,0.2-1.1c-0.1,0-0.1,0-0.2-0.1c-0.9-0.3-1.3-0.6-1.7-0.9c-0.3-0.2-0.6-0.5-1.3-0.8
		c-0.3-0.1-0.6-0.2-0.8-0.3c-0.7-0.3-1.5-0.6-1.7-1.5c-0.2-1,0.5-1.8,0.9-2.2c0.8-0.9,1.4-1.3,1.9-1.6c0.2-0.1,0.3-0.2,0.4-0.3
		c0.4-0.4-0.7-2.9-1.2-3.9c-0.9-2.1-1.8-4-0.6-5.1c0.9-0.8,2.3-0.8,4.4,0.2c0.6,0.3,1.2,0.7,1.6,1c0.1-0.4,0.4-0.8,0.8-1.1l0,0
		c1.1-0.6,2.6,0.1,4.3,2.1c0.4,0.5,1,1.2,1.5,2.2c0.2,0.5,0.4,0.9,0.5,1.3c0.2-0.1,0.5-0.1,0.8,0c0.9,0.2,1.4,1,1.7,2.3
		c0.3,1.4,0.3,2.6,0.4,3.7c0,0.9,0.1,1.8,0.3,2.3c0.4,1.1,1.5,1.7,2.9,2.4L498.6,345.9L498.6,345.9z"/>
	<path class="st1" d="M495.9,330.9l-0.6-5.1l0.3-0.4c1.2-1.8,1.8-3.5,1.8-5.2c0-0.3,0-0.5,0-0.8c0-1.1-0.1-2.4,0.6-3.9
		c0.4-0.9,1.5-2.8,3.1-2.6c0.4,0.1,0.8,0.3,1,0.5c0-0.1,0.1-0.1,0.1-0.2c0.5-0.8,0.9-1.1,1.3-1.4c0.3-0.2,0.6-0.5,1.1-1.1
		c0.2-0.3,0.4-0.5,0.5-0.7c0.4-0.6,1-1.3,1.9-1.3c1,0,1.6,0.9,1.9,1.5c0.6,1,0.9,1.7,1.1,2.2c0.1,0.2,0.1,0.4,0.2,0.4
		c0.3,0.5,3,0,4.1-0.1c2.3-0.4,4.3-0.7,5.1,0.7c0.6,1,0.2,2.4-1.3,4.2c-0.5,0.6-1,1-1.4,1.3c0.4,0.2,0.7,0.5,0.8,1.1l0,0
		c0.3,1.2-0.7,2.5-3.1,3.7c-0.6,0.3-1.4,0.7-2.5,0.9c-0.5,0.1-1,0.1-1.4,0.1c0,0.2-0.1,0.5-0.2,0.8c-0.4,0.8-1.3,1.1-2.6,1
		c-1.4-0.1-2.6-0.4-3.7-0.6c-0.9-0.2-1.7-0.4-2.3-0.3c-1.2,0.1-2,1-3.1,2.2L495.9,330.9L495.9,330.9z"/>
	<path class="st1" d="M501.1,429.3l-1.1-0.7l-0.3-1.2l0.3,1.2l-1.2,0.1c0-0.1-0.1-0.4-0.2-0.8c-0.6-2.3-2.2-9.2-3.7-20
		c-1-7.6-1.5-15.4-1.7-23.2c-0.1-7.8,0.3-13.7,0.6-18.5c0.2-3.6,0.5-7,0.8-10.3c0.7-8.9,1.4-17.3,0.9-26.5c-0.1-2.1-0.3-6.4-2.9-11
		c-1.5-2.7-3.5-5-6-7l1.6-2c2.8,2.2,5,4.8,6.6,7.8c2.8,5.1,3,9.8,3.2,12.1c0.5,9.4-0.2,17.9-0.9,26.9c-0.3,3.3-0.5,6.7-0.8,10.3
		c-0.3,4.7-0.7,10.6-0.5,18.3c0.1,7.7,0.7,15.4,1.6,22.9c1.4,10.7,3.1,17.5,3.6,19.7C501.4,428.6,501.4,428.8,501.1,429.3
		L501.1,429.3z"/>
	<path class="st1" d="M482.1,315.5c-0.1,0-0.2,0-0.3,0c-2.1-0.1-4.1-1.4-5.9-3.8c-0.8-1.1-1.3-2.4-2.1-5c-0.1-0.4-0.8-2.4-1.2-5.2
		c-0.3-1.8-0.2-2.6,0.1-3.2c0.4-0.7,1-1.3,1.8-1.6c0-0.2,0-0.5,0.1-0.7c0.4-1,1.6-0.9,2.2-0.8c0.3,0,0.7,0.1,1.1,0.1
		c0.7,0,1-0.2,1.5-0.5c0.5-0.3,1.2-0.6,2.1-0.8c1.9-0.4,3.4,0.1,3.9,0.3c2.7,0.9,4,3,5.6,5.4c0.3,0.5,1.4,2.3,2.1,4.7
		c0.5,1.8,0.4,2.5,0.3,3.1c-0.3,1.2-1,1.9-2.9,3.4c-1.9,1.6-2.9,2.4-3.7,2.9C484.9,314.8,483.7,315.5,482.1,315.5L482.1,315.5z"/>
</g>
<g>
	<g>
		<path id="b-164" class="st2" d="M243.5,228.7c4.2,1.1,8.1-0.2,8.8-2.8c0.7-2.7-2.1-5.7-6.3-6.8c-1.7-0.5-3.4-0.5-5.1-0.2
			l-17.7-4.4l-1.9,8.4l17.7,3.5C240.3,227.5,241.8,228.3,243.5,228.7L243.5,228.7z"/>
		<path class="st3" d="M146.1,188.1c0,0-3.6,6.9,1.4,10.3s46.5,19.2,46.5,19.2l41.2,9l1.5-10l-37.5-12l-31.3-21.1L146.1,188.1
			L146.1,188.1z"/>
	</g>
	<g>
		<polygon class="st2" points="195.2,410.9 202.2,407.7 191.2,374.8 180.9,379.5 		"/>
		<path class="st3" d="M225.9,413.9L225.9,413.9c0.6,1.2,0.2,2.5-0.8,3l-13.7,6.6c0,0-3.9-4.8-10.6-4.5l3.3,7.9l-7.1,3.4l-5.1-12.9
			c0,0-5.1-5.8-2.8-11.1c2.3-5.3-0.7-3.3-0.7-3.3l-2.2-8.5l11.3-3.9l5.9,12.1l11,9.6l9.4,0.1C224.6,412.5,225.5,413.1,225.9,413.9
			L225.9,413.9L225.9,413.9z"/>
	</g>
	<g>
		<polygon class="st2" points="56.9,393.9 63.1,398.3 85.9,372.2 76.7,365.6 		"/>
		<path class="st3" d="M69.7,421.9L69.7,421.9c-0.7,1.1-2.1,1.4-3,0.8l-12.6-8.5c0,0,2.1-5.8-1.5-11.4l-5.2,6.9l-6.5-4.4l8.5-10.9
			c0,0,2.4-7.3,8.1-8c5.7-0.7,2.5-2.2,2.5-2.2l6.2-6.1l9,7.8l-7.5,11.2l-2.7,14.3l4.7,8.2C70.3,420.1,70.2,421.1,69.7,421.9
			L69.7,421.9L69.7,421.9z"/>
	</g>
	<rect x="134.7" y="143.3" class="st3" width="32.8" height="45.1"/>
	<path class="st4" d="M160.1,169.1l-17.8-5.3l-3.4,9.2l-0.5,55.9c0,0,25.5-5.8,31.3,3.9l1.9-17.3c0,0,6.3-8.7,1-19.8
		c-5.3-11.1-10.3-16.1-10.3-16.1l-4.2-2.2L160.1,169.1L160.1,169.1z"/>
	<path class="st2" d="M139.6,220.4l-2.4,24.6l31.8,6.7c0,0-2.4-21.2,0.5-26L139.6,220.4z"/>
	<path class="st3" d="M171,251.2c0,0-20.2-14.9-37.6-9.2c0,0-20.5,12.8-9.9,34.9l-16.1,38.3l-36.1,50.6l10.1,12l47.7-49.6l15.4-21.2
		l39,82.9l12-5.8l-14.9-63.6l-8.9-44.1L171,251.2L171,251.2z"/>
	<polygon class="st3" points="123.7,279.7 99.6,272 122.8,207.9 120.4,173.7 140.8,167.9 152.2,218.5 	"/>
	<path class="st3" d="M161,180.8l-3.6-3.6l1.6-3.4c0,0,10.5,10.9,12.4,13.8s19.9,75.5,19.9,75.5l-27.2,11.2l5.3-57l2-12.8
		c0.3-1.9,0-3.8-0.9-5.5L161,180.8L161,180.8z"/>
	<circle class="st2" cx="152.2" cy="148.6" r="16"/>
	<path class="st3" d="M162.1,142c-5.5-3.7-15.3,11-18.3,2c-0.5-1.4-1.6,4.8-2,7c-0.5,2.8,0.8,5,0,5.5c-0.9,0.6-3-1.9-3.5-1.6
		c-0.4,0.4,1,3.3,3.5,6.6c3.3,4.5,5.4,5.6,8.2,8.6c2.6,2.8,7.3,8,6.6,12.5c-1.3,8.4-21.7,14.9-28.1,8.6c-1.5-1.5-1.8-4.9-2.3-11.7
		c-0.8-10.1-0.2-17.6,0-19.9c0.8-9.3,1.2-14,3.1-17.9c1.2-2.5,5.3-10.9,14.4-13.6c9.8-2.9,21.4,1.9,24.6,9c0.9,2.1,0,1.8,1.2,8.6
		c1.4,8,2.2,12.8,5.8,15.6c3.3,2.6,5.9,1.1,7,3.1c2.9,5.1-10.7,21.3-16.4,19.1c-3.4-1.3-3.7-9.2-3.5-12.9c0.5-7.9,4.4-9.5,4.3-16.8
		C166.7,151.8,166.6,145,162.1,142L162.1,142z"/>
	<g>
		<path id="c-165" class="st2" d="M92.5,275.5c-0.7,4.3,1,8.1,3.7,8.5c2.7,0.4,5.5-2.7,6.1-6.9c0.3-1.7,0.2-3.4-0.3-5.1l2.6-18.1
			l-8.5-1.1l-1.7,17.9C93.4,272.2,92.7,273.8,92.5,275.5L92.5,275.5z"/>
		<path class="st3" d="M123.3,174.6c0,0-7.2-2.9-10.1,2.4s-14.5,48.2-14.5,48.2l-4.8,41.9l10.1,0.5l8.2-38.5l17.8-33.2
			C130,195.8,123.3,174.6,123.3,174.6z"/>
	</g>
</g>
<path class="st5" d="M583,430.2L583,430.2c0,0.5-0.4,0.8-0.8,0.8H0v-1.7h582.2C582.7,429.3,583,429.7,583,430.2z"/>
</svg>
